<?xml version="1.0" encoding="UTF-8"?>
<!-- Generator: Adobe Illustrator 28.0.0, SVG Export Plug-In . SVG Version: 6.00 Build 0)  -->
<svg xmlns="http://www.w3.org/2000/svg" xmlns:xlink="http://www.w3.org/1999/xlink" version="1.1" id="Layer_1" x="0px" y="0px" viewBox="0 0 1951 932.9" style="enable-background:new 0 0 1951 932.9;" xml:space="preserve">
<style type="text/css">
	.st0{fill:#FFFFFF;}
</style>
<g>
	<g>
		<g>
			<path class="st0" d="M772.2,422.5c0.5,7.5-0.7,12.1-8.7,12.7c-23.5,1.7-56.4-2.1-57.7-20.1c-2.5-36,81-233.8,78.2-273.8     c-0.4-5,3.9-8.8,13.4-9.5c21-1.5,50.6,19.1,51.6,33.1C851.1,194.3,769.5,384.5,772.2,422.5z"></path>
		</g>
		<g>
			<path class="st0" d="M637.9,200.6c-44.6,0-85.7,20.6-85.7,42.6c0,2,0,4,0.5,6.5c-11.5,7.5-47.1,34.1-47.1,77.2     c0,36.1,32.6,62.5,73.1,59.2c86-7,136.9-66.2,136.9-126.9C715.5,224.2,688,200.6,637.9,200.6z M587.8,346.1     c-9.9-1.2-12.9-8.2-13.2-13.2c-2.4-33,32.5-94.1,63.4-96.3c5.1-0.4,8.3,1.4,8.7,7C647.6,257.2,618.4,349.9,587.8,346.1z"></path>
		</g>
		<g>
			<path class="st0" d="M1048.8,612.9c-44.6,0-85.7,20.6-85.7,42.6c0,2,0,4,0.5,6.5c-11.5,7.5-47.1,34.1-47.1,77.2     c0,36.1,29.6,55.1,70.2,55.1c79.7,0,139.8-62.1,139.8-122.8C1126.5,636.4,1098.9,612.9,1048.8,612.9z M1004.7,754.3     c-9.9-1.2-12.9-8.2-13.2-13.2c-2.4-33,32.5-94.1,63.4-96.3c5.1-0.4,8.3,1.4,8.7,7C1064.5,665.5,1035.3,758.1,1004.7,754.3z"></path>
		</g>
		<g>
			<path class="st0" d="M1014.8,305.5c0.2,7.4-1.2,13.4-9.2,13.6c-23.4,0.7-60.1-17.1-57.6-34.7c2.4-16.3,32.9-102.2,44.6-134.7     c1.7-4.6,5.9-9.7,15.3-10c29.8-0.9,48.9,20.6,49.3,34.4C1058.3,202.7,1013.6,268.1,1014.8,305.5z M1056.3,66     c15.1-0.5,26.6,8.6,27.1,23.7c0.7,20.9-15,41-34.3,41.6c-14.6,0.5-27.9-8.5-28.4-23.3C1020.1,86.8,1035.8,66.6,1056.3,66z"></path>
		</g>
		<g>
			<path class="st0" d="M1938.2,281.7c-2,3-4.2,5.9-6.5,8.6c-8.9,10.7-35.4,33.2-37.8,35.2c-2.4,2-5.6,4.1-9.3,6.2     c-17.7,10.2-47.6,20.6-71.1,24.5c-95,15.8-185.7-8.6-272.1-26.2c-26.4-5.5-62.8-12.6-86.9-16.3c0-1.1,12.2-56.4,16.4-74.5     c14.6-62.6,21.3-99.6,21.3-111.1c0-11.5-12.4-28.2-55.5-28.2c-81.7,0-147.9,73-147.9,138.2c0,28.1,16,45.1,41.6,45.1     c43.6,0,70.5-24.5,74-24.5c0.5,0,1.5,0,1.5,1c0,1.1-7.9,47.1-11,48.6c-4.3,2.2-46.6,15.4-63.7,23.1     c-47.3,21.3-130.7,72.4-110.2,144.1c14.8,51.8,68.8,73.8,128.8,50.1c60.2-23.8,84-117.8,95.8-169.4c42.6,4.7,68.2,11.5,94.6,18.9     c54.7,15.4,81.7,24,137.2,37.8c28.3,7,70.9,10.5,106.4,8.1c9.8-0.7,19-1.8,27.2-3.3c10.3-2,20.6-5.4,30.5-9.8     c0.1,0,0.1-0.1,0.2-0.1c0.9-0.4,1.7-0.8,2.6-1.2c24.2-11.4,46.9-28.9,64.5-52.9c14.4-19.5,25.3-43.3,31-71.4     C1940.1,281.4,1938.7,280.8,1938.2,281.7z M1343.5,441.4c-9.2,9.9-25.1,25.4-42.7,14.8c-6.2-3.7-11.3-9.7-11.9-18.5     c-1.5-22.1,16.5-40.1,37.1-54.2c13.2-8.4,47.2-22.6,59.2-24.9C1380,389.6,1363.1,420.2,1343.5,441.4z M1371.6,238.6     c-9.9-1.2-12.9-8.2-13.2-13.2c-2.4-33,32.5-94.1,63.4-96.3c5.1-0.4,8.3,1.4,8.7,7C1431.4,149.8,1402.2,242.4,1371.6,238.6z"></path>
		</g>
		<g>
			<path class="st0" d="M1095.8,38.8c-3.8,7-17.8,3.8-27.5,2.7c-21.3-2.4-39.3,3-52.6,13.3c-13.3,10.3-24.7,25.7-31,38.4     c-5.5,11-8.1,17.1-11,25c-7.1,19.3-39.8,110.8-41.5,116.4c-2.5,8.2-14.3,43.5-16.7,50.8c-3.1,9.5-8.7,29.5-10.4,35.4     c-0.3,1.1-0.6,2.1-0.9,3.1c-1.4,5.2-9.4,34-9.4,40c0,7.7-1.1,12.3-9.2,12.6c-23.8,0.8-57.8-7.5-58.4-25.9     c-0.7-22.7,57.2-193.4,57.2-193.4c2.6-7,7.6-18.9,12.3-30.2c8.1-19.6,17.9-38.4,29.1-56.3c11-17.5,29.7-37.1,44.4-48.9     c11.9-9.7,31-18.2,42.9-20.7c11.9-2.5,34.7-0.7,47.6,4.7C1073.7,11.2,1100.7,29.6,1095.8,38.8z"></path>
		</g>
		<g>
			<path class="st0" d="M1174.6,372.1c-6.9-16.2-22-28.2-40-33.7c-45.3-13.7-105.9,2.6-139.1,15.8c-97,38.3-175.9,96.3-279.5,128.2     c-43.9,13.5-110.8,22.5-150.1-0.6c-37.2-21.8-55.9-61.7-73.5-103.3c-17.2-41.9-34.4-83.9-51.6-125.8v-0.6     c49.2-10.9,138.3-81.8,98.4-147.7c-22.3-37-68.1-55.1-128.5-54.2c-20.5,0-56,3.8-78.4,10.4c-59.6,12.9-110.7,40.7-132.7,91.2     c-22.7,51.8,20.2,85.2,50.2,93.2c10.4,2.8,24,3,27-3c3.4-6.8-28-25-11-64c15.8-36.3,50.3-56.8,80.3-65.1     c-29.2,60.7-41.8,135.6-58.3,209.6c-3.7,16.6-15.8,63.6-2.4,73.7c8.5,6.4,63.3,13.2,71.7,1.8c7.5-10.2,5.3-22.9,6.7-47     c1.6-27.8,10.5-54.7,15.8-82c11.9,17.1,20.9,65.8,28,88.7c25.2,81.8,49.2,169,126.4,198.7c42.7,16.4,103.1,5.5,141-7.3     c95.7-32.3,174.3-82.9,260.1-126.4c22.3-11.3,123.3-61.9,161.9-23.8c46.5,46-22.9,112.7-19,121c5.1,7.7,46.9-25.9,58-38     C1158.1,457.6,1192,413.1,1174.6,372.1z M390.3,224.2c2.8-21.6,29-114.6,39.5-125.2c31.5-0.4,46.4,30.8,35.8,62.6     C455.1,193,429.8,222.1,390.3,224.2z"></path>
		</g>
		<g>
			<path class="st0" d="M1277.9,333.5c-27,13-56.4,6.8-77.2-5.7c-21.8-13.5-29-33.5-30-52c-1.2-21.4,15.4-67.5,25.2-83.9     c7.1-11.8,8.4-21.5,0-21.3c-7.5,0.2-22.9,7.1-38.6,27.1c-20.2,25.7-29.4,72-28.6,93.6c0.3,7.5-1.1,12.1-9.1,12.4     c-23.5,0.9-60.7-4-61.3-22c-1.3-36.1,43.8-121.8,44.9-155.2c0.2-5,10.2-8.7,19.7-9c44.6-1.6,45.5,34.9,47.5,34.8     c2-0.1,22.4-33.1,67.5-34.8c25-0.9,36.2,11.7,36.9,31.7c0.1,2.8-0.2,6.9-0.8,11.4c-2.1,16.8-7.6,33.1-13.5,49     c-3.1,8.4-14.4,39.9-15.1,41.8c-3.8,10.2-7.8,22.1-7.5,34c1.1,39.5,60.5,18.9,65.6,21.5C1310,310,1291.6,326.9,1277.9,333.5z"></path>
		</g>
		<g>
			<path class="st0" d="M1215.2,728.5c0.5,5.7,3.7,8.3,8.9,7.8c27.6-2.6,53-82.7,48.7-127.4c-0.5-4.8,2.6-8.4,9.2-9     c27.6-2.6,56.5,14.3,58,29.5c1.4,14.7-27,69-23,111.3c1.6,16.6,5,16.8,5.6,23c0.3,3.3-1.8,6.9-6.6,7.4     c-38.5,3.7-58.1-22.6-61.5-22.3c-5.2,0.5-24.9,26.4-67.9,31.4c-22.3,2.6-39.6-11.3-42-36c-3.3-34.2,28.5-85,24.9-123     c-0.5-4.8,4-8.5,13-9.4c23.3-2.2,48.6,16.5,50.4,35.9C1235.3,672.4,1213,704.7,1215.2,728.5z"></path>
		</g>
		<g>
			<path class="st0" d="M1539.5,719.2c1.2,17.2,7.9,23.5,8.3,29.6c0.3,3.5-2.1,6.3-7.2,6.6c-40.6,2.9-61.8-29.3-65.4-29     c-6.6,0.5-21.2,33.7-62.7,37.8c-30,3-59.2-17.8-61.2-46.2c-4.9-67.9,60.6-142.5,121.4-146.8c19.8-1.4,33.1,6.3,34.6,6.2     c1-0.1,2-0.7,2.4-1.7c17.6-52.2,32-115.9,30.7-133.6c-0.4-5.1,3.9-8.9,13.6-9.6c21.3-1.5,50.8,19.3,51.8,33.5     c1.1,14.7-16.5,83.2-36.9,140.2C1554.2,647.8,1537.4,689.8,1539.5,719.2z M1422.2,703.7c0.4,5.1,3.4,12,13.2,13.2     c30.6,3.8,59.8-88.8,58.8-102.5c-0.4-5.6-3.6-7.4-8.7-7C1454.7,609.6,1419.9,670.7,1422.2,703.7z"></path>
		</g>
		<g>
			<path class="st0" d="M1272.7,872c-17.6,23.9-30.8,34.4-55,45.8c-0.9,0.4-2.7,1.2-2.7,1.3c-9.9,4.4-20.3,7.8-30.5,9.8     c-6.3,1.2-13.1,2.1-20.3,2.8c-2.3,0.2-43.3,2.9-66.4-0.3c-0.3,0-0.6,0-0.9-0.1c-22.3-1.5-43.1-5.9-65.9-11     c-58.9-13.1-114.1-34.1-170.3-55.8c-18.8-7.1-37.7-14.2-56.5-21.3c-12.1-3.5-23.5,12.7-31,17.6c-19.7,12.9-65.6,27.9-92.4,10.9     c-22.2-14.1-19.1-43.3,0.6-57.7c12.2-9,28.4-10.5,47.3-13.4c0,0,0.1,0,0.1,0l22.1-0.6c0.2,0,0.4,0,0.6-0.1     c4.9-3.1,32.3-45.9,30.2-53.9c-2.4-9.4-17.6-27.1-25-32.5c-28.8-21.2-61.7-38-100.3-49.8c-71.7-22.1-163.5-10.6-233.9,4.3     c-27.1,4.3-54.3,8.5-81.4,12.7c-42,7.9-102.6,11.7-145.2,1.2C126.7,665,75,631.5,39.2,581C8.5,537.9-6.7,478.2,14.7,412     c0.4-1.3,2.2-1.1,2.3,0.3c1.7,21.3,10.8,43.4,17.9,61.3c32.3,81.3,88.9,124.1,184.7,142.2c47.5,9,170.2,4.4,170.3,4.4     c29.7-1.2,65.5-4.4,95.3-5.6c20.9-0.6,41.7-1.2,62.6-1.8c96.7,0,166.2,18.3,221.2,58.9l26.4,21.1c0.7,0.5,1.7,0.2,1.9-0.6     c23-73.1,28.3-165.2,95.5-194.2c15-6.5,37.4-13.2,60.8-9.1c28.3,5,45.8,20,50.6,46.4c5.9,32.3-28.5,80.3-64.1,77.3     c-10.3-0.9,21.1-29.5,15.8-56.2c-2.2-10.8-13.1-19.3-23.8-18.9c-28.8,1.1-33.7,29.9-41,54.5c-20.6,68.8-26.2,135.8-55,195.3     c-0.4,0.7,0.2,1.3,0.9,1.7c43.7,20.1,84.9,41.8,129.5,54.9c34.2,10,68.2,18.1,105.1,24.9c2.8,0.6,5.5,1.1,8.2,1.6     c0,0,0.1,0,0.1,0c35,3.1,73.4,6.3,109.6,0.2c11.8-2,40.2-4.7,68.3-27c0.9-0.7,4.7-3.9,9.6-8.3c9.2-8,22.3-20,28.1-26.9     c2-2.4,4-5,5.7-7.6c0.8-1.1,2.4-0.4,2.2,0.9C1297.7,829.5,1286.9,852.8,1272.7,872z"></path>
		</g>
		<g>
			<circle class="st0" cx="1656.8" cy="568.3" r="15.2"></circle>
		</g>
		<g>
			<circle class="st0" cx="1652.7" cy="636.4" r="23.2"></circle>
		</g>
		<g>
			<circle class="st0" cx="1723.4" cy="598" r="28.4"></circle>
		</g>
	</g>
</g>
<g>
	<g>
		<path class="st0" d="M1431,929.3V808.4h55.7v21.7h-31.6v27.3h27.2v21.7h-27.2v28.4h31.6v21.7H1431z"></path>
		<path class="st0" d="M1568.4,920.6c-6.5,6.6-14.9,10-25.1,10c-10.2,0-18.7-3.4-25.1-10c-5.8-5.9-9-14.1-9-23.8v-88.5h24.1V898    c0,7.8,4.6,10.9,10,10.9s10-3.1,10-10.9v-89.7h24.1v88.5C1577.4,906.5,1574.1,914.7,1568.4,920.6z"></path>
		<path class="st0" d="M1650.6,929.3l-14.8-47h-8v47h-24.1V808.4h34.5c26.3,0,33.6,13.8,33.6,36.9c0,12.9-2,24.5-13.8,31.8    l17.7,52.3H1650.6z M1638,830.1h-10.2v30.4h10.2c9.2,0,9.7-8.3,9.7-15.3C1647.7,838.3,1647.2,830.1,1638,830.1z"></path>
		<path class="st0" d="M1756.2,918.6c-5.6,6.6-13.1,12.1-26.7,12.1c-13.6,0-20.7-5.4-26.3-12.1c-9.7-11.5-9-33.5-9-49.8    s-0.7-38.2,9-49.8c5.6-6.6,12.7-12.1,26.3-12.1c13.6,0,21.1,5.4,26.7,12.1c9.7,11.5,9,33.5,9,49.8S1765.9,907,1756.2,918.6z     M1737.9,833.5c-1.4-2.7-3.9-4.8-8.3-4.8c-4.4,0-6.6,2-8,4.8c-2.9,5.6-3.2,20.7-3.2,35.3s0.3,29.7,3.2,35.3c1.4,2.7,3.6,4.8,8,4.8    c4.4,0,7-2,8.3-4.8c2.9-5.6,3.2-20.7,3.2-35.3S1740.7,839.1,1737.9,833.5z"></path>
		<path class="st0" d="M1822.9,885.6h-10v43.6h-24.1V808.4h34.1c26.2,0,34,14.8,34,38.4C1856.9,870.5,1849.1,885.6,1822.9,885.6z     M1823.1,830.1h-10.2v33.8h10.2c9.2,0,9.7-9.3,9.7-17C1832.8,839.3,1832.3,830.1,1823.1,830.1z"></path>
		<path class="st0" d="M1880,929.3V808.4h55.7v21.7h-31.6v27.3h27.2v21.7h-27.2v28.4h31.6v21.7H1880z"></path>
	</g>
</g>
</svg>
